<?xml version="1.0" encoding="utf-8"?>
<svg viewBox="18.927 -21.293 500 500" width="500" height="500" xmlns="http://www.w3.org/2000/svg">
  <circle style="fill: rgb(255, 255, 255);" cx="268.927" cy="228.707" r="250"/>
  <circle style="" cx="217.55" cy="249.488" r="6.483" transform="matrix(3.701642, 0, 0, 3.721678, -356.183411, -624.625366)"/>
  <path d="M 163.047 254.738 L 157.797 242.588 L 131.547 242.588 L 126.367 254.738 L 116.317 254.738 L 139.947 202.238 L 149.547 202.238 L 173.247 254.738 L 163.047 254.738 Z M 134.847 234.938 L 154.577 234.938 L 144.667 211.988 L 134.847 234.938 Z" transform="matrix(3.246143102645874, 0, 0, 3.721677780151367, -123.3409652709961, -619.3587036132812)" style="fill: rgb(255, 255, 255); white-space: pre;"/>
  <path d="M 163.047 254.738 L 157.797 242.588 L 131.547 242.588 L 126.367 254.738 L 116.317 254.738 L 139.947 202.238 L 149.547 202.238 L 173.247 254.738 L 163.047 254.738 Z M 134.847 234.938 L 154.577 234.938 L 144.667 211.988 L 134.847 234.938 Z" transform="matrix(3.246143102645874, 0, 0, 3.721677780151367, -151.09872436523438, -619.3587036132812)" style="white-space: pre;"/>
  <path d="M 163.047 254.738 L 157.797 242.588 L 131.547 242.588 L 126.367 254.738 L 116.317 254.738 L 139.947 202.238 L 149.547 202.238 L 173.247 254.738 L 163.047 254.738 Z M 134.847 234.938 L 154.577 234.938 L 144.667 211.988 L 134.847 234.938 Z" transform="matrix(3.246143102645874, 0, 0, 3.721677780151367, -273.01885986328125, -619.3587036132812)" style="fill: rgb(255, 255, 255); white-space: pre;"/>
  <path d="M 163.047 254.738 L 157.797 242.588 L 131.547 242.588 L 126.367 254.738 L 116.317 254.738 L 139.947 202.238 L 149.547 202.238 L 173.247 254.738 L 163.047 254.738 Z M 134.847 234.938 L 154.577 234.938 L 144.667 211.988 L 134.847 234.938 Z" transform="matrix(3.246143102645874, 0, 0, 3.721677780151367, -301.7425231933594, -619.2656860351562)" style="white-space: pre;"/>
  <polygon points="36.747 361.751" style="fill: rgb(51, 51, 51);"/>
</svg>