<?xml version="1.0" encoding="utf-8"?>
<svg viewBox="100.505 188.344 230 230" width="230" height="230" xmlns="http://www.w3.org/2000/svg">
  <rect style="fill: rgb(255, 255, 255);" x="100.505" y="188.344" width="230" height="230" rx="50" ry="50"/>
  <g transform="matrix(1.001922, 0, 0, 1.05693, -2.400716, -22.456104)" style="">
    <circle style="" cx="217.55" cy="249.488" r="6.483" transform="matrix(1.788283, 0, 0, 1.694418, -87.725456, -80.177277)"/>
    <path d="M 163.047 254.738 L 157.797 242.588 L 131.547 242.588 L 126.367 254.738 L 116.317 254.738 L 139.947 202.238 L 149.547 202.238 L 173.247 254.738 L 163.047 254.738 Z M 134.847 234.938 L 154.577 234.938 L 144.667 211.988 L 134.847 234.938 Z" transform="matrix(1.568228006362915, 0, 0, 1.6944180727005005, 26.761913299560547, -77.77946472167969)" style="fill: rgb(255, 255, 255); white-space: pre;"/>
    <path d="M 163.047 254.738 L 157.797 242.588 L 131.547 242.588 L 126.367 254.738 L 116.317 254.738 L 139.947 202.238 L 149.547 202.238 L 173.247 254.738 L 163.047 254.738 Z M 134.847 234.938 L 154.577 234.938 L 144.667 211.988 L 134.847 234.938 Z" transform="matrix(1.568228006362915, 0, 0, 1.6944180727005005, 13.351974487304688, -77.77946472167969)" style="white-space: pre;"/>
    <path d="M 163.047 254.738 L 157.797 242.588 L 131.547 242.588 L 126.367 254.738 L 116.317 254.738 L 139.947 202.238 L 149.547 202.238 L 173.247 254.738 L 163.047 254.738 Z M 134.847 234.938 L 154.577 234.938 L 144.667 211.988 L 134.847 234.938 Z" transform="matrix(1.568228006362915, 0, 0, 1.6944180727005005, -45.548248291015625, -77.77946472167969)" style="fill: rgb(255, 255, 255); white-space: pre;"/>
    <path d="M 163.047 254.738 L 157.797 242.588 L 131.547 242.588 L 126.367 254.738 L 116.317 254.738 L 139.947 202.238 L 149.547 202.238 L 173.247 254.738 L 163.047 254.738 Z M 134.847 234.938 L 154.577 234.938 L 144.667 211.988 L 134.847 234.938 Z" transform="matrix(1.568228006362915, 0, 0, 1.6944180727005005, -59.42479705810547, -77.73709869384766)" style="white-space: pre;"/>
    <polygon points="104.101 368.904" style="fill: rgb(51, 51, 51);"/>
  </g>
</svg>