<?xml version="1.0" encoding="utf-8"?>
<svg viewBox="110.12 249.498 211.538 111.923" width="211.538" height="111.923" xmlns="http://www.w3.org/2000/svg">
  <g transform="matrix(1.001922, 0, 0, 1.05693, -2.400716, -22.456104)" style="">
    <circle style="" cx="217.55" cy="249.488" r="6.483" transform="matrix(1.788283, 0, 0, 1.694418, -88.34034, -79.255295)"/>
    <path d="M 281.843 354.774 L 273.61 334.187 L 232.444 334.187 L 224.32 354.774 L 208.559 354.774 L 245.617 265.817 L 260.672 265.817 L 297.839 354.774 L 281.843 354.774 Z M 237.619 321.225 L 268.56 321.225 L 253.019 282.338 L 237.619 321.225 Z" style="white-space: pre; fill: rgb(255, 255, 255);"/>
    <path d="M 268.433 354.774 L 260.2 334.187 L 219.034 334.187 L 210.91 354.774 L 195.149 354.774 L 232.207 265.817 L 247.262 265.817 L 284.429 354.774 L 268.433 354.774 Z M 224.209 321.225 L 255.15 321.225 L 239.609 282.338 L 224.209 321.225 Z" style="white-space: pre;"/>
    <path d="M 209.533 354.774 L 201.299 334.187 L 160.133 334.187 L 152.01 354.774 L 136.249 354.774 L 173.306 265.817 L 188.361 265.817 L 225.528 354.774 L 209.533 354.774 Z M 165.309 321.225 L 196.25 321.225 L 180.709 282.338 L 165.309 321.225 Z" style="white-space: pre; fill: rgb(255, 255, 255);"/>
    <path d="M 195.656 354.817 L 187.423 334.229 L 146.257 334.229 L 138.133 354.817 L 122.373 354.817 L 159.43 265.86 L 174.485 265.86 L 211.652 354.817 L 195.656 354.817 Z M 151.432 321.267 L 182.373 321.267 L 166.832 282.38 L 151.432 321.267 Z" style="white-space: pre;"/>
    <polygon points="103.487 369.825" style="fill: rgb(51, 51, 51);"/>
  </g>
</svg>