<?xml version="1.0" encoding="utf-8"?>
<svg viewBox="0 0 230 230" xmlns="http://www.w3.org/2000/svg">
  <rect style="" width="230" height="230" rx="50" ry="50" transform="matrix(1, 0, 0, 1, 0, 7.105427357601002e-15)"/>
  <g transform="matrix(1.0019220113754272, 0, 0, 1.0569300651550293, -102.90601348876953, -210.80010986328125)" style="">
    <circle style="fill: rgb(255, 255, 255);" cx="217.55" cy="249.488" r="6.483" transform="matrix(1.788283, 0, 0, 1.694418, -87.725456, -80.177277)"/>
    <path d="M 163.047 254.738 L 157.797 242.588 L 131.547 242.588 L 126.367 254.738 L 116.317 254.738 L 139.947 202.238 L 149.547 202.238 L 173.247 254.738 L 163.047 254.738 Z M 134.847 234.938 L 154.577 234.938 L 144.667 211.988 L 134.847 234.938 Z" transform="matrix(1.568228006362915, 0, 0, 1.6944180727005005, 26.761913299560547, -77.77946472167969)" style="white-space: pre;"/>
    <path d="M 163.047 254.738 L 157.797 242.588 L 131.547 242.588 L 126.367 254.738 L 116.317 254.738 L 139.947 202.238 L 149.547 202.238 L 173.247 254.738 L 163.047 254.738 Z M 134.847 234.938 L 154.577 234.938 L 144.667 211.988 L 134.847 234.938 Z" transform="matrix(1.568228006362915, 0, 0, 1.6944180727005005, 13.351974487304688, -77.77946472167969)" style="white-space: pre; fill: rgb(255, 255, 255);"/>
    <path d="M 163.047 254.738 L 157.797 242.588 L 131.547 242.588 L 126.367 254.738 L 116.317 254.738 L 139.947 202.238 L 149.547 202.238 L 173.247 254.738 L 163.047 254.738 Z M 134.847 234.938 L 154.577 234.938 L 144.667 211.988 L 134.847 234.938 Z" transform="matrix(1.568228006362915, 0, 0, 1.6944180727005005, -45.548248291015625, -77.77946472167969)" style="white-space: pre;"/>
    <path d="M 163.047 254.738 L 157.797 242.588 L 131.547 242.588 L 126.367 254.738 L 116.317 254.738 L 139.947 202.238 L 149.547 202.238 L 173.247 254.738 L 163.047 254.738 Z M 134.847 234.938 L 154.577 234.938 L 144.667 211.988 L 134.847 234.938 Z" transform="matrix(1.568228006362915, 0, 0, 1.6944180727005005, -59.42479705810547, -77.73709869384766)" style="white-space: pre; fill: rgb(255, 255, 255);"/>
  </g>
</svg>